<svg version="1.1" viewBox="0 0 1024 1024" xmlns="http://www.w3.org/2000/svg">
  <g transform="scale(1, -1) translate(0, -900)">
      <path d="M 321 613 Q 343 644 368 683 Q 386 717 402 732 Q 411 742 406 755 Q 402 767 375 787 Q 350 803 332 803 Q 314 802 322 781 Q 343 742 268 616 Q 234 558 185 493 Q 176 483 174 477 Q 171 467 185 470 Q 218 476 312 600 L 321 613 Z" fill="black"/>
      <path d="M 312 600 Q 322 588 353 592 Q 423 605 428 595 Q 434 582 416 530 Q 401 473 344 396 Q 290 314 196 232 Q 174 217 194 219 Q 221 222 267 253 Q 315 284 365 348 Q 426 427 472 528 Q 494 577 509 591 Q 521 601 515 612 Q 511 622 461 642 Q 449 646 429 636 Q 398 623 321 613 C 293 609 293 609 312 600 Z" fill="black"/>
  </g>
</svg>
