<?xml version="1.0" encoding="UTF-8" standalone="no"?>
<svg
   viewBox="0 0 116 56"
   width="116"
   height="56"
   version="1.1"
   id="svg1"
   xmlns="http://www.w3.org/2000/svg"
   xmlns:svg="http://www.w3.org/2000/svg">
  <defs
     id="defs1" />
  <style
     id="style1">
@import url('https://fonts.googleapis.com/css2?family=Roboto+Slab:wght@400;700&amp;display=swap');
.key rect { fill: none; stroke: none; }
.corner-label {
  font-family: &quot;Roboto Slab&quot;, &quot;DejaVu Serif&quot;, serif;
  font-weight: 700;
  font-size: 12px;
  fill: #333;
  dominant-baseline: hanging;
}
.mod-label {
  font-family: &quot;Roboto Slab&quot;, &quot;DejaVu Serif&quot;, serif;
  font-weight: 400;
  font-size: 14px;
  fill: #222;
  text-anchor: middle;
  dominant-baseline: central;
}
</style>
  <path
     d="m 18.907001,32.2 q -0.182,0 -0.448,-0.266 l -2.968,-2.968 2.926,-2.94 q 0.28,-0.28 0.42,-0.28 h 7.42 q 0.112,0 0.196,0.084 0.084,0.07 0.084,0.196 v 5.894 q 0,0.126 -0.084,0.21 -0.084,0.07 -0.196,0.07 z m 6.902,-5.894 -2.688,2.688 2.646,2.646 h 0.182 v -5.334 z m -1.134,0 h -4.256 l 2.128,2.114 z m -5.376,0 h -0.182 l -2.646,2.66 2.646,2.674 h 0.238 l 2.632,-2.646 z m 1.176,5.334 h 4.144 l -2.072,-2.086 z m 10.179193,0.483288 V 31.26196 l 1.114258,-0.191407 v -7.84082 l -1.114258,-0.191406 v -0.868164 h 1.114258 3.178711 q 1.558593,0 2.433593,0.676757 0.881836,0.669922 0.881836,2.016602 0,0.663086 -0.423828,1.189453 -0.416992,0.519531 -1.107422,0.772461 0.601563,0.123047 1.032227,0.485352 0.430664,0.355468 0.663086,0.875 0.239258,0.512695 0.239258,1.127929 0,1.367188 -0.888672,2.091797 -0.888672,0.717774 -2.40625,0.717774 z m 2.460937,-1.052735 h 2.25586 q 0.922851,0 1.428711,-0.451172 0.512695,-0.458007 0.512695,-1.291992 0,-0.875 -0.430664,-1.374023 -0.423828,-0.499024 -1.305664,-0.499024 h -2.460938 z m 0,-4.668945 h 2.180664 q 0.72461,0 1.168946,-0.416992 0.451172,-0.423828 0.451172,-1.148438 0,-0.80664 -0.50586,-1.203125 -0.505859,-0.40332 -1.46289,-0.40332 h -1.832032 z m 8.920899,5.865234 q -1.155274,0 -1.756836,-0.560547 -0.601563,-0.567382 -0.601563,-1.592773 0,-1.052734 0.861329,-1.688477 0.861328,-0.642578 2.392578,-0.642578 h 1.319336 v -0.724609 q 0,-0.669922 -0.410157,-1.039063 -0.40332,-0.36914 -1.141601,-0.36914 -0.464844,0 -0.806641,0.116211 -0.341797,0.109375 -0.62207,0.307617 L 41.12685,27.10571 h -1.039062 v -1.695313 q 0.499023,-0.40332 1.162109,-0.608398 0.663086,-0.211914 1.469727,-0.211914 1.346679,0 2.112304,0.642578 0.765625,0.642578 0.765625,1.838867 v 3.561523 q 0,0.143555 0,0.280274 0.0068,0.136718 0.02051,0.273437 l 0.717774,0.0752 v 0.861328 h -1.934571 q -0.06152,-0.300782 -0.0957,-0.540039 -0.03418,-0.239258 -0.04785,-0.478516 -0.389649,0.499023 -0.97754,0.833984 -0.581054,0.328125 -1.24414,0.328125 z m 0.198242,-1.127929 q 0.669922,0 1.223633,-0.321289 0.553711,-0.321289 0.792969,-0.772461 v -1.339844 h -1.367188 q -0.929687,0 -1.394531,0.444336 -0.464844,0.444336 -0.464844,0.991211 0,0.485351 0.300781,0.745117 0.300782,0.25293 0.90918,0.25293 z m 8.490234,1.127929 q -1.004882,0 -1.75,-0.464843 -0.745117,-0.47168 -1.155273,-1.305664 Q 47.409077,29.66235 47.409077,28.5686 v -0.287109 q 0,-1.052735 0.396484,-1.886719 0.396484,-0.833984 1.141602,-1.319336 0.745117,-0.485351 1.777343,-0.485351 0.895508,0 1.56543,0.293945 0.676758,0.293945 1.134766,0.80664 l 0.03418,1.777344 h -1.052734 l -0.232422,-1.291992 q -0.232422,-0.239258 -0.581055,-0.382812 -0.348632,-0.143555 -0.820312,-0.143555 -0.601563,0 -1.05957,0.355469 -0.451172,0.355468 -0.704102,0.950195 -0.25293,0.594726 -0.25293,1.326172 V 28.5686 q 0,0.806641 0.232422,1.401367 0.239258,0.594727 0.676758,0.922852 0.444336,0.321289 1.052734,0.321289 0.683594,0 1.134766,-0.375977 0.451172,-0.375976 0.553711,-1.032226 h 1.209961 l 0.01367,0.04102 q -0.03418,0.635743 -0.375977,1.189454 -0.341797,0.553711 -0.977539,0.895507 -0.628906,0.334961 -1.551758,0.334961 z m 3.882813,-0.143554 V 31.26196 l 1.114258,-0.191407 v -8.551758 l -1.114258,-0.191406 v -0.868164 h 2.460937 v 9.611328 l 1.114258,0.191407 v 0.861328 z m 4.750976,0 V 31.26196 l 0.751954,-0.08887 -0.02051,-0.02734 -2.139649,-2.761719 0.697266,-1.073242 2.987305,3.787109 1.066406,0.164063 v 0.861328 z m -2.385742,-2.139649 -0.499023,-1.05957 3.21289,-3.199219 0.03418,-0.04102 -0.792969,-0.08887 v -0.868164 h 3.185547 v 0.868164 l -0.950195,0.177735 z m 9.495117,2.283203 q -0.745117,0 -1.394531,-0.15039 -0.649414,-0.150391 -1.380859,-0.464844 l -0.01367,-1.756836 h 1.018555 l 0.252929,1.05957 q 0.382813,0.157227 0.738282,0.232422 0.362304,0.06836 0.779296,0.06836 0.820313,0 1.175782,-0.314454 0.355468,-0.314453 0.355468,-0.779296 0,-0.4375 -0.362304,-0.738282 -0.355469,-0.307617 -1.298828,-0.519531 -1.339844,-0.307617 -1.975586,-0.820312 -0.628907,-0.519532 -0.628907,-1.38086 0,-0.601562 0.348633,-1.073242 0.348633,-0.478516 0.970703,-0.758789 0.622071,-0.280273 1.449219,-0.280273 0.84082,0 1.435547,0.191406 0.601563,0.191406 1.045898,0.512695 l 0.06836,1.688477 h -1.011719 l -0.21875,-0.984375 q -0.239258,-0.177735 -0.567383,-0.273438 -0.328125,-0.0957 -0.751953,-0.0957 -0.628906,0 -1.02539,0.293945 -0.389649,0.293946 -0.389649,0.738282 0,0.259765 0.109375,0.451171 0.116211,0.191407 0.4375,0.348633 0.321289,0.150391 0.943359,0.300782 1.544922,0.362304 2.153321,0.922851 0.615234,0.560547 0.615234,1.380859 0,0.936524 -0.697265,1.572266 -0.69043,0.628906 -2.180665,0.628906 z m 3.78711,2.700196 v -0.868164 l 1.045898,-0.191407 V 25.786374 L 70.18642,25.594967 v -0.868164 h 2.269532 l 0.123047,0.902344 q 0.36914,-0.505859 0.895507,-0.772461 0.533204,-0.266601 1.230469,-0.266601 0.916016,0 1.56543,0.499023 0.649414,0.492187 0.991211,1.387695 0.341797,0.888672 0.341797,2.084961 v 0.143555 q 0,1.066406 -0.348633,1.866211 -0.341797,0.799805 -0.984375,1.250976 -0.642578,0.444336 -1.544922,0.444336 -0.683594,0 -1.203125,-0.225586 -0.512695,-0.232421 -0.875,-0.683593 v 2.549804 l 1.175781,0.191407 v 0.868164 z m 4.053711,-3.75293 q 0.957031,0 1.449219,-0.697266 0.492187,-0.697265 0.492187,-1.811523 v -0.143555 q 0,-0.847656 -0.21875,-1.490234 -0.21875,-0.649414 -0.65625,-1.018555 -0.430664,-0.36914 -1.080078,-0.36914 -0.574219,0 -0.984375,0.259765 -0.410156,0.259766 -0.663086,0.710938 v 3.602539 q 0.25293,0.458008 0.65625,0.710937 0.410156,0.246094 1.004883,0.246094 z m 6.726562,1.052734 q -1.155273,0 -1.756836,-0.560547 -0.601562,-0.567382 -0.601562,-1.592773 0,-1.052734 0.861328,-1.688477 0.861328,-0.642578 2.392578,-0.642578 h 1.319336 v -0.724609 q 0,-0.669922 -0.410156,-1.039063 -0.403321,-0.36914 -1.141602,-0.36914 -0.464844,0 -0.80664,0.116211 -0.341797,0.109375 -0.622071,0.307617 l -0.143554,1.032227 h -1.039063 v -1.695313 q 0.499024,-0.40332 1.162109,-0.608398 0.663086,-0.211914 1.469727,-0.211914 1.34668,0 2.112305,0.642578 0.765625,0.642578 0.765625,1.838867 v 3.561523 q 0,0.143555 0,0.280274 0.0068,0.136718 0.02051,0.273437 l 0.717773,0.0752 v 0.861328 h -1.93457 q -0.06152,-0.300782 -0.0957,-0.540039 -0.03418,-0.239258 -0.04785,-0.478516 -0.389648,0.499023 -0.977539,0.833984 -0.581055,0.328125 -1.244141,0.328125 z m 0.198242,-1.127929 q 0.669922,0 1.223633,-0.321289 0.553711,-0.321289 0.792969,-0.772461 V 28.705319 H 81.88271 q -0.929688,0 -1.394532,0.444336 -0.464843,0.444336 -0.464843,0.991211 0,0.485351 0.300781,0.745117 0.300781,0.25293 0.909179,0.25293 z m 8.490235,1.127929 q -1.004883,0 -1.75,-0.464843 -0.745117,-0.47168 -1.155274,-1.305664 Q 86.4081,29.66235 86.4081,28.5686 v -0.287109 q 0,-1.052735 0.396485,-1.886719 0.396484,-0.833984 1.141601,-1.319336 0.745117,-0.485351 1.777344,-0.485351 0.895508,0 1.56543,0.293945 0.676757,0.293945 1.134765,0.80664 l 0.03418,1.777344 H 91.40517 l -0.232421,-1.291992 q -0.232422,-0.239258 -0.581055,-0.382812 -0.348633,-0.143555 -0.820313,-0.143555 -0.601562,0 -1.05957,0.355469 -0.451172,0.355468 -0.704101,0.950195 -0.25293,0.594726 -0.25293,1.326172 V 28.5686 q 0,0.806641 0.232422,1.401367 0.239258,0.594727 0.676758,0.922852 0.444335,0.321289 1.052734,0.321289 0.683594,0 1.134766,-0.375977 0.451171,-0.375976 0.55371,-1.032226 h 1.209961 l 0.01367,0.04102 q -0.03418,0.635743 -0.375976,1.189454 -0.341797,0.553711 -0.977539,0.895507 -0.628907,0.334961 -1.551758,0.334961 z m 7.492187,0 q -1.02539,0 -1.784179,-0.464843 -0.758789,-0.47168 -1.175782,-1.305664 Q 93.8456,29.66235 93.8456,28.5686 v -0.300781 q 0,-1.052734 0.430664,-1.879883 0.4375,-0.833984 1.155274,-1.3125 0.724609,-0.485351 1.579101,-0.485351 0.998047,0 1.667969,0.410156 0.676758,0.410156 1.018555,1.155273 0.341797,0.738281 0.341797,1.743164 v 0.840821 h -4.798829 l -0.02051,0.03418 q 0.01367,0.710938 0.246093,1.264649 0.239258,0.546875 0.683594,0.861328 0.444336,0.314453 1.066406,0.314453 0.683594,0 1.196289,-0.191406 0.519532,-0.198242 0.895508,-0.540039 l 0.526367,0.875 q -0.396484,0.382812 -1.052734,0.649414 -0.649414,0.259765 -1.56543,0.259765 z m -1.93457,-4.580078 H 98.69228 V 27.50903 q 0,-0.533203 -0.191406,-0.950195 -0.184571,-0.423829 -0.560547,-0.663086 -0.369141,-0.246094 -0.929688,-0.246094 -0.451172,0 -0.820312,0.266601 -0.369141,0.259766 -0.608399,0.710938 -0.239258,0.451172 -0.314453,1.025391 z"
     id="text1"
     class="mod-label"
     style="font-size:14px;font-family:'Roboto Slab', 'DejaVu Serif', serif;dominant-baseline:central;text-anchor:middle;fill:#222222"
     aria-label="⌫ Backspace" />
</svg>
