<?xml version="1.0" encoding="UTF-8" standalone="no"?>
<svg
   viewBox="0 0 56 56"
   width="56"
   height="56"
   version="1.1"
   id="svg12"
   xmlns="http://www.w3.org/2000/svg"
   xmlns:svg="http://www.w3.org/2000/svg">
  <defs
     id="defs12" />
  <style
     id="style1">
@import url('https://fonts.googleapis.com/css2?family=Roboto+Slab:wght@400;700&amp;display=swap');
.key rect { fill: none; stroke: none; }
.corner-label {
  font-family: &quot;Roboto Slab&quot;, &quot;DejaVu Serif&quot;, serif;
  font-weight: 700;
  font-size: 12px;
  fill: #333;
  dominant-baseline: hanging;
}
.mod-label {
  font-family: &quot;Roboto Slab&quot;, &quot;DejaVu Serif&quot;, serif;
  font-weight: 400;
  font-size: 14px;
  fill: #222;
  text-anchor: middle;
  dominant-baseline: central;
}
</style>
  <path
     d="M 6.328125,17.627397 V 16.602006 L 7.2363281,16.426225 V 10.303178 L 6.328125,10.127397 V 9.0961471 h 0.9082031 2.8828129 q 1.505859,0 2.349609,0.5859375 0.84375,0.5859374 0.84375,1.7519534 0,0.591797 -0.316406,1.060547 -0.310547,0.46289 -0.908203,0.697265 0.509765,0.111328 0.849609,0.392578 0.345703,0.28125 0.515625,0.685547 0.169922,0.398438 0.169922,0.873047 0,1.224609 -0.808594,1.857422 -0.808594,0.626953 -2.291015,0.626953 z m 2.6191406,-1.3125 h 1.5761724 q 0.679687,0 1.037109,-0.292969 0.357422,-0.298828 0.357422,-0.878906 0,-0.626953 -0.304688,-0.955078 Q 11.308594,13.85396 10.652344,13.85396 H 8.9472656 Z m 0,-3.644531 h 1.2304684 q 0.685547,0 1.054688,-0.28125 0.369141,-0.28125 0.369141,-0.820313 0,-0.591797 -0.375,-0.873047 -0.369141,-0.28125 -1.107422,-0.28125 H 8.9472656 Z"
     id="text1"
     class="corner-label"
     style="font-weight:700;font-size:12px;font-family:'Roboto Slab', 'DejaVu Serif', serif;dominant-baseline:hanging;fill:#333333"
     aria-label="B" />
  <g
     transform="translate(3.17,28.5) scale(0.014648)"
     id="g5">
    <g
       transform="scale(1, -1) translate(0, -900)"
       id="g4">
      <path
         d="M 398 390 Q 410 502 412 535 L 414 566 Q 417 717 420 735 C 422 758 422 758 405 766 Q 405 767 404 767 Q 353 791 337 787 Q 316 783 334 760 Q 373 697 357 455 Q 353 356 304 239 Q 271 154 155 37 Q 140 24 137 16 Q 136 9 148 10 Q 164 11 186 26 Q 246 69 281 112 Q 333 173 363 244 Q 382 296 394 361 L 398 390 Z"
         fill="black"
         id="path1" />
      <path
         d="M 420 735 Q 429 735 609 769 Q 631 773 637 762 Q 656 713 657 390 Q 657 128 640 101 Q 634 94 612 99 Q 581 105 549 111 Q 527 117 528 107 Q 595 55 633 16 Q 649 -3 665 -9 Q 675 -13 685 -2 Q 730 53 725 113 Q 712 321 709 657 Q 708 721 723 750 Q 736 772 723 783 Q 698 804 658 820 Q 639 827 621 820 Q 569 793 536 785 Q 493 773 405 766 C 375 763 390 730 420 735 Z"
         fill="black"
         id="path2" />
      <path
         d="M 412 535 Q 442 529 533 542 Q 587 551 594 554 Q 603 561 599 569 Q 592 579 566 587 Q 538 594 511 583 Q 487 576 462 572 Q 440 568 414 566 C 384 564 382 540 412 535 Z"
         fill="black"
         id="path3" />
      <path
         d="M 394 361 Q 428 351 561 374 Q 564 375 568 375 Q 590 379 594 382 Q 603 389 599 397 Q 592 407 566 415 Q 538 421 511 411 Q 484 404 456 397 Q 428 393 398 390 C 368 387 365 368 394 361 Z"
         fill="black"
         id="path4" />
    </g>
  </g>
  <g
     transform="translate(20.5,28.5) scale(0.014648)"
     id="g10">
    <g
       transform="scale(1, -1) translate(0, -900)"
       id="g9">
      <path
         d="M 282 732 Q 258 751 232 761 Q 222 762 214 754 Q 210 747 218 735 Q 276 576 226 266 Q 216 215 198 162 Q 188 134 193 111 Q 202 72 215 58 Q 227 42 239 57 Q 267 90 279 237 Q 273 249 289 563 Q 293 650 299 687 C 303 717 303 717 282 732 Z"
         fill="black"
         id="path5" />
      <path
         d="M 299 687 Q 306 687 314 689 Q 477 729 676 757 Q 703 763 716 747 Q 732 740 739 667 Q 761 424 753 148 Q 753 108 738 96 Q 720 83 631 99 Q 612 102 615 91 Q 616 82 631 77 Q 712 28 754 -11 Q 779 -33 794 -29 Q 807 -25 819 8 Q 835 60 831 135 Q 804 514 803 654 Q 802 699 815 726 Q 828 751 816 764 Q 804 780 749 807 Q 727 817 705 812 Q 543 758 282 732 C 252 729 270 681 299 687 Z"
         fill="black"
         id="path6" />
      <g
         transform="translate(256 256) scale(0.5)"
         id="g8">
        <path
           d="M 515 348 Q 567 421 600 512 Q 660 666 685 699 Q 701 718 683 734 Q 632 788 601 782 Q 583 779 587 760 Q 609 685 540 512 Q 519 466 477 393 L 446 349 Q 329 202 162 140 L 120 120 Q 102 111 116 106 Q 134 102 178 110 Q 266 132 340 179 Q 422 225 468 287 Q 474 297 481 305 L 515 348 Z"
           fill="black"
           id="path7" />
        <path
           d="M 481 305 Q 653 95 727 78 Q 757 75 921 77 Q 942 77 961 83 Q 971 93 954 106 Q 932 118 755 171 Q 656 198 550 312 Q 532 330 515 348 L 477 393 Q 413 471 346 569 Q 316 614 260 629 Q 241 633 225 624 Q 215 614 229 600 Q 241 590 253 583 Q 283 568 445 351 L 446 349 L 481 305 Z"
           fill="black"
           id="path8" />
      </g>
    </g>
  </g>
  <g
     transform="translate(37.83,28.5) scale(0.014648)"
     id="g12">
    <g
       transform="scale(1, -1) translate(0, -900)"
       id="g11">
      <path
         d="M 808 719 Q 812 682 813 123 Q 812 99 800 90 Q 799 90 734 104 Q 701 120 702 108 Q 703 101 723 84 Q 781 27 796 -3 Q 812 -39 827 -41 Q 843 -42 859 -7 Q 878 41 879 118 Q 860 362 865 608 Q 868 699 881 747 Q 897 778 840 801 Q 804 820 785 813 Q 766 806 783 782 Q 805 754 808 719 Z"
         fill="black"
         id="path10" />
    </g>
  </g>
</svg>
