<?xml version="1.0" encoding="UTF-8" standalone="no"?>
<svg
   viewBox="0 0 86 56"
   width="86"
   height="56"
   version="1.1"
   id="svg1"
   xmlns="http://www.w3.org/2000/svg"
   xmlns:svg="http://www.w3.org/2000/svg">
  <defs
     id="defs1" />
  <style
     id="style1">
@import url('https://fonts.googleapis.com/css2?family=Roboto+Slab:wght@400;700&amp;display=swap');
.key rect { fill: none; stroke: none; }
.corner-label {
  font-family: &quot;Roboto Slab&quot;, &quot;DejaVu Serif&quot;, serif;
  font-weight: 700;
  font-size: 12px;
  fill: #333;
  dominant-baseline: hanging;
}
.mod-label {
  font-family: &quot;Roboto Slab&quot;, &quot;DejaVu Serif&quot;, serif;
  font-weight: 400;
  font-size: 14px;
  fill: #222;
  text-anchor: middle;
  dominant-baseline: central;
}
</style>
  <path
     d="M 33.805664,32.123288 V 31.26196 l 1.114258,-0.191407 v -7.881836 h -2.25586 l -0.198242,1.38086 h -1.011718 v -2.399414 h 8.271484 v 2.399414 h -0.998047 l -0.205078,-1.38086 h -2.255859 v 7.881836 l 1.114257,0.191407 v 0.861328 z m 8.729492,0.143554 q -1.155273,0 -1.756836,-0.560547 -0.601562,-0.567382 -0.601562,-1.592773 0,-1.052734 0.861328,-1.688477 0.861328,-0.642578 2.392578,-0.642578 H 44.75 v -0.724609 q 0,-0.669922 -0.410156,-1.039063 -0.403321,-0.36914 -1.141602,-0.36914 -0.464844,0 -0.80664,0.116211 -0.341797,0.109375 -0.622071,0.307617 l -0.143554,1.032227 h -1.039063 v -1.695313 q 0.499023,-0.40332 1.162109,-0.608398 0.663086,-0.211914 1.469727,-0.211914 1.34668,0 2.112305,0.642578 0.765625,0.642578 0.765625,1.838867 v 3.561523 q 0,0.143555 0,0.280274 0.0068,0.136718 0.02051,0.273437 l 0.717774,0.0752 v 0.861328 h -1.93457 q -0.06152,-0.300782 -0.0957,-0.540039 -0.03418,-0.239258 -0.04785,-0.478516 -0.389649,0.499023 -0.977539,0.833984 -0.581055,0.328125 -1.244141,0.328125 z m 0.198242,-1.127929 q 0.669922,0 1.223633,-0.321289 0.553711,-0.321289 0.792969,-0.772461 v -1.339844 h -1.367188 q -0.929687,0 -1.394531,0.444336 -0.464844,0.444336 -0.464844,0.991211 0,0.485351 0.300782,0.745117 0.300781,0.25293 0.909179,0.25293 z m 9.078125,1.127929 q -0.724609,0 -1.257812,-0.273437 -0.533203,-0.280274 -0.888672,-0.820313 l -0.123047,0.950196 h -1.162109 v -9.604493 l -1.114258,-0.191406 v -0.868164 h 2.460937 v 4.142578 q 0.348633,-0.492187 0.861329,-0.751953 0.519531,-0.259765 1.209961,-0.259765 0.916015,0 1.558593,0.499023 0.649414,0.492187 0.991211,1.387695 0.348633,0.895508 0.348633,2.084961 v 0.143555 q 0,1.066406 -0.348633,1.866211 -0.341797,0.799805 -0.991211,1.250976 -0.642578,0.444336 -1.544922,0.444336 z m -0.341796,-1.09375 q 0.950195,0 1.408203,-0.676757 0.464843,-0.676758 0.464843,-1.791016 v -0.143555 q 0,-0.854492 -0.205078,-1.49707 -0.205078,-0.649414 -0.62207,-1.011719 -0.416992,-0.36914 -1.05957,-0.36914 -0.622071,0 -1.052735,0.300781 -0.423828,0.300781 -0.676758,0.80664 v 3.267579 q 0.25293,0.512695 0.683594,0.813476 0.4375,0.300781 1.059571,0.300781 z"
     id="text1"
     class="mod-label"
     style="font-size:14px;font-family:'Roboto Slab', 'DejaVu Serif', serif;dominant-baseline:central;text-anchor:middle;fill:#222222"
     aria-label="Tab" />
</svg>
