<?xml version="1.0" encoding="UTF-8" standalone="no"?>
<svg
   viewBox="0 0 56 56"
   width="56"
   height="56"
   version="1.1"
   id="svg13"
   xmlns="http://www.w3.org/2000/svg"
   xmlns:svg="http://www.w3.org/2000/svg">
  <defs
     id="defs13" />
  <style
     id="style1">
  @import url('https://fonts.googleapis.com/css2?family=Roboto+Slab:wght@400;700&amp;display=swap');
  .key rect { fill: none; stroke: none; }
.key-label {
  font-family: &quot;Roboto Slab&quot;, &quot;DejaVu Serif&quot;, serif;
  font-weight: 700;
  font-size: 14px;
  fill: #222;
  text-anchor: middle;
  dominant-baseline: central;
}
.mod-label {
  font-family: &quot;Roboto Slab&quot;, &quot;DejaVu Serif&quot;, serif;
  font-weight: 400;
  font-size: 14px;
  fill: #222;
  text-anchor: middle;
  dominant-baseline: central;
}

</style>
  <path
     d="m 23.112305,12.123288 v -1.196289 l 0.710937,-0.102539 3.165039,-8.6542973 h 2.043946 l 3.144531,8.6542973 0.710937,0.102539 v 1.196289 H 29.49707 V 10.926999 L 30.1875,10.803952 29.75,9.4367642 h -3.5 l -0.4375,1.3671878 0.69043,0.123047 v 1.196289 z M 26.72168,7.9670377 h 2.55664 l -1.162109,-3.4111328 -0.0957,-0.3007813 h -0.04102 l -0.102539,0.3212891 z"
     id="text1"
     class="key-label"
     style="font-weight:700;font-size:14px;font-family:'Roboto Slab', 'DejaVu Serif', serif;dominant-baseline:central;text-anchor:middle;fill:#222222"
     aria-label="A" />
  <g
     transform="translate(0.0,20) scale(0.027344,0.035156)"
     id="g5">
    <g
       transform="scale(1, -1) translate(0, -900)"
       id="g4">
      <path
         d="M 349 664 Q 348 665 347 666 Q 322 687 292 696 Q 282 697 274 689 Q 270 682 279 670 Q 331 531 294 261 Q 287 216 271 169 Q 262 141 267 118 Q 277 81 291 65 Q 304 50 314 66 Q 324 79 332 102 L 339 137 Q 349 186 350 238 Q 350 316 351 391 L 352 420 Q 353 576 361 626 C 364 652 364 652 349 664 Z"
         fill="black"
         id="path1" />
      <path
         d="M 608 120 Q 641 78 665 39 Q 675 18 688 19 Q 707 20 724 59 Q 745 104 740 157 Q 728 310 721 593 Q 720 629 738 654 Q 748 669 738 681 Q 716 703 656 730 Q 635 740 617 729 Q 512 684 349 664 C 319 660 332 620 361 626 Q 410 635 590 672 Q 624 679 640 666 Q 691 615 658 164 Q 657 163 657 159 Q 653 143 640 144 C 621 121 602 128 608 120 Z"
         fill="black"
         id="path2" />
      <path
         d="M 351 391 Q 390 378 433 387 Q 493 399 554 411 Q 582 417 587 421 Q 596 428 591 437 Q 584 447 556 455 Q 531 461 450 435 Q 375 423 352 420 C 322 416 322 400 351 391 Z"
         fill="black"
         id="path3" />
      <path
         d="M 332 102 Q 345 98 361 100 Q 440 115 608 120 C 638 121 661 122 640 144 Q 633 153 614 166 Q 596 178 561 170 Q 438 146 339 137 C 309 134 303 108 332 102 Z"
         fill="black"
         id="path4" />
    </g>
  </g>
  <g
     transform="translate(28.0,20) scale(0.027344,0.035156)"
     id="g13">
    <g
       transform="scale(1, -1) translate(0, -900)"
       id="g12">
      <path
         d="M 270 716 Q 246 740 213 748 Q 203 751 196 741 Q 192 735 200 724 Q 260 577 214 260 Q 205 202 186 142 Q 176 114 181 92 Q 191 55 203 41 Q 216 26 226 41 Q 263 80 264 255 Q 264 357 267 461 L 268 494 Q 268 534 271 565 L 272 599 Q 276 663 281 689 C 283 705 283 705 270 716 Z"
         fill="black"
         id="path5" />
      <path
         d="M 386 477 Q 387 473 394 464 Q 416 433 436 460 Q 448 476 455 535 Q 458 649 485 690 Q 498 708 484 723 Q 465 738 435 754 Q 419 760 404 753 Q 341 729 270 716 C 241 710 253 680 281 689 Q 378 722 404 708 Q 413 702 412 672 Q 408 587 402 516 Q 401 506 397 499 C 388 473 384 481 386 477 Z"
         fill="black"
         id="path6" />
      <path
         d="M 271 565 Q 320 575 357 580 Q 379 586 369 597 Q 359 610 334 613 Q 312 614 274 601 L 272 599 C 248 580 242 559 271 565 Z"
         fill="black"
         id="path7" />
      <path
         d="M 267 461 Q 271 461 276 462 Q 310 471 386 477 C 416 479 418 480 397 499 Q 390 506 375 514 Q 360 521 332 513 Q 298 503 268 494 C 239 485 237 459 267 461 Z"
         fill="black"
         id="path8" />
      <path
         d="M 631 767 Q 609 786 584 795 Q 578 798 573 794 Q 566 790 573 777 Q 603 714 594 569 Q 591 506 621 481 Q 622 481 624 479 Q 640 472 644 501 Q 644 504 644 506 L 645 540 Q 642 567 642 620 L 642 646 Q 642 695 644 735 C 645 756 645 756 631 767 Z"
         fill="black"
         id="path9" />
      <path
         d="M 810 517 Q 816 115 795 78 Q 789 72 770 77 Q 743 83 716 90 Q 695 97 696 87 Q 754 35 785 -3 Q 798 -24 815 -28 Q 825 -32 833 -22 Q 876 27 875 86 Q 862 303 860 655 Q 859 716 873 744 Q 886 763 873 775 Q 851 794 811 810 Q 790 819 734 790 Q 698 778 631 767 C 601 762 615 729 644 735 Q 692 744 764 762 Q 783 766 791 755 Q 804 742 805 696 Q 808 618 809 545 L 810 517 Z"
         fill="black"
         id="path10" />
      <path
         d="M 642 620 Q 643 620 648 620 Q 708 627 751 633 Q 773 637 765 649 Q 755 662 731 666 Q 698 670 642 646 C 614 634 612 620 642 620 Z"
         fill="black"
         id="path11" />
      <path
         d="M 644 506 Q 651 505 663 506 Q 709 515 810 517 C 840 518 834 528 809 545 Q 803 549 794 556 Q 778 566 747 559 Q 692 546 645 540 C 615 536 614 508 644 506 Z"
         fill="black"
         id="path12" />
    </g>
  </g>
</svg>
